<svg xmlns="http://www.w3.org/2000/svg" width="112" height="29" fill="none">
  <g clip-path="url(#a)">
    <path fill="#FEFEFD" d="M2.632 15.075c0 .086-.002.171-.003.257l.003-.252v-.005Z"/>
    <path fill="#010101" d="M20.475 2.517c.365-.019.76-.04 1.09.034.185.041.308.11.415.273.068.373.129.742.143 1.122.03.805.022 1.616.015 2.426-.004.367-.007.734-.007 1.1l-.001 6.973c0 .23.007.615.015 1.085.029 1.644.075 4.315-.073 4.903-.106.423-.322.617-.688.832-.327.042-.667.05-1.005.057-.177.004-.354.008-.527.017-1.628.083-3.348.249-4.843.94-.4.185-.802.402-1.154.67-.18.137-.382.328-.596.531-.536.508-1.155 1.094-1.74 1.126-.672.037-1.311-.539-1.9-1.07-.28-.253-.55-.495-.806-.657-.62-.392-1.323-.694-2.02-.922-1.15-.376-2.367-.569-3.573-.64a8.93 8.93 0 0 0-.558-.01c-.35 0-.704.002-1.034-.07-.288-.065-.473-.21-.69-.402-.158-.376-.207-.841-.226-1.246C.677 18.864.686 18.13.695 17.4c.004-.324.009-.648.01-.97l.003-6.168-.005-4.667c0-.204-.008-.426-.017-.655C.66 4.32.635 3.645.77 3.116c.074-.29.243-.419.486-.574 2.675-.173 5.597.383 7.948 1.69.781.435 1.485.967 2.196 1.504.4-.298.803-.596 1.215-.878 2.213-1.512 4.848-2.26 7.518-2.326.109-.003.224-.008.342-.015Zm-.308 2.096c-.324.003-.667-.018-.988.025-2.196.198-5.014 1.001-6.505 2.75a5.116 5.116 0 0 0-.183.231l-.004 13.733c.244-.177.486-.359.734-.53 2.051-1.226 4.617-1.438 6.956-1.606 0-4.865.065-9.739-.01-14.603Zm-17.5.002c-.05 2.032-.04 4.072-.03 6.108.005.836.01 1.67.01 2.504 0 .613-.007 1.23-.015 1.848v.005c-.017 1.368-.035 2.743.033 4.096 2.702.232 5.415.5 7.666 2.151a808.26 808.26 0 0 1 .076-13.673C8.637 5.786 5.87 4.683 3.315 4.611a12.012 12.012 0 0 0-.648.004Z"/>
    <path fill="#010101" d="m20.475 2.517.017.326-.017-.326Zm1.09.034-.072.318.072-.318Zm.415.273.32-.059-.012-.064-.036-.055-.272.178Zm.143 1.122-.326.012.326-.012Zm.015 2.426.325.003-.325-.003Zm-.007 1.1h.326-.326Zm-.001 6.973h-.326.326Zm.015 1.085.326-.005-.326.005Zm-.073 4.903-.316-.079.316.08Zm-.688.832.04.324.067-.009.058-.034-.165-.28Zm-1.005.057-.007-.326.007.326Zm-.527.017-.016-.326.017.326Zm-4.843.94.136.296-.136-.296Zm-1.154.67.198.26-.198-.26Zm-.596.531-.224-.236.224.236Zm-1.74 1.126.018.326-.018-.326Zm-1.9-1.07.218-.242-.218.242Zm-.806-.657.174-.276-.174.276Zm-2.02-.922.101-.31-.101.31Zm-3.573-.64-.02.325.02-.326Zm-.558-.01-.001-.326.001.325Zm-1.034-.07-.07.317.07-.318Zm-.69-.402-.3.126.029.069.055.049.216-.244Zm-.226-1.246.325-.016-.325.016ZM.695 17.4l-.325-.004.325.004Zm.01-.97H.377h.326Zm.003-6.168h.326-.326ZM.703 5.595H.377h.326ZM.686 4.94l-.326.013.326-.013ZM.77 3.116l-.316-.08.316.08Zm.486-.574-.021-.325-.084.005-.07.045.175.275Zm7.948 1.69.158-.284-.158.284ZM11.4 5.736l-.196.26.195.148.196-.147-.195-.26Zm1.215-.878-.184-.269.184.27Zm7.518-2.326.008.326-.008-.326Zm.034 2.081.326-.005-.005-.323-.324.002.003.326Zm-.988.025.03.324.013-.001-.043-.323Zm-6.505 2.75-.248-.21h-.001l.249.21Zm-.183.231-.26-.196-.066.087v.109h.326Zm-.004 13.733h-.325v.64l.517-.376-.192-.264Zm.734-.53-.167-.28-.01.005-.01.007.187.267Zm6.956-1.606.023.325.303-.022v-.303h-.326Zm-17.51-14.6-.01-.327-.308.01-.008.308.326.008Zm-.03 6.107-.325.002.326-.002Zm.01 2.504h-.325.325Zm-.015 1.848-.326-.004v.004h.326Zm0 .005.326.004v-.004h-.326Zm.033 4.096-.325.016.014.284.283.024.028-.324Zm7.666 2.151-.193.263.52.382-.001-.646-.326.001Zm.076-13.673.326.005.002-.133-.091-.096-.237.224ZM3.315 4.611l.01-.325h-.003l-.007.325Zm17.16-2.094.017.326c.378-.02.724-.036 1.002.026l.07-.318.071-.318c-.382-.086-.824-.06-1.178-.04l.018.324Zm1.09.034-.071.318a.411.411 0 0 1 .133.048.266.266 0 0 1 .08.085l.273-.178.272-.178a.912.912 0 0 0-.617-.413l-.07.318Zm.415.273-.321.059c.068.372.125.72.139 1.075l.325-.012.326-.012a8.125 8.125 0 0 0-.149-1.169l-.32.06Zm.143 1.122-.326.012c.03.797.023 1.6.015 2.41l.326.004.325.003c.008-.808.016-1.627-.014-2.441l-.326.012Zm.015 2.426-.326-.003c-.004.367-.007.735-.007 1.103h.652c0-.364.003-.73.006-1.097l-.325-.003Zm-.007 1.1h-.326v6.973h.651V7.472h-.325Zm-.001 6.973h-.326c0 .233.008.623.016 1.09l.325-.005.326-.005c-.008-.472-.015-.855-.015-1.08h-.326Zm.015 1.085-.325.006c.014.822.033 1.897.03 2.84-.003.472-.01.907-.025 1.26-.017.363-.041.608-.069.718l.316.08.316.079c.046-.184.072-.494.088-.848.016-.366.023-.811.025-1.286.003-.951-.016-2.034-.03-2.855l-.326.006Zm-.073 4.903-.316-.079a.808.808 0 0 1-.175.358c-.079.089-.19.17-.363.273l.166.28.165.281c.193-.113.374-.236.52-.404.153-.172.255-.375.32-.63l-.317-.079Zm-.688.832-.041-.323c-.307.04-.63.047-.971.054l.007.326.007.326c.335-.008.692-.015 1.039-.06l-.041-.323Zm-1.005.057-.007-.326a19.04 19.04 0 0 0-.536.017l.017.326.016.325c.168-.008.34-.012.517-.016l-.007-.326Zm-.527.017-.016-.326c-1.63.083-3.406.25-4.964.97l.137.296.136.296c1.434-.663 3.098-.828 4.724-.91l-.017-.326Zm-4.843.94-.137-.296c-.412.19-.836.42-1.214.707l.197.26.198.258a5.885 5.885 0 0 1 1.092-.633l-.136-.296Zm-1.154.67-.197-.26c-.197.15-.413.355-.623.555l.224.236.224.237c.219-.207.406-.384.57-.509l-.198-.259Zm-.596.531-.224-.236a8.65 8.65 0 0 1-.82.714c-.279.203-.517.312-.714.323l.019.325.018.326c.387-.022.75-.222 1.06-.447.316-.229.62-.518.885-.768l-.224-.237Zm-1.74 1.126-.017-.325c-.238.013-.495-.08-.787-.27-.292-.19-.579-.447-.878-.717l-.218.242-.218.242c.29.262.616.557.96.78.342.222.74.398 1.176.374l-.018-.326Zm-1.9-1.07.218-.242c-.273-.247-.565-.511-.85-.69l-.174.275-.173.275c.227.144.474.365.76.624l.22-.242Zm-.806-.657.174-.276c-.65-.41-1.378-.722-2.093-.956l-.101.31-.101.31c.679.222 1.355.513 1.948.887l.173-.275Zm-2.02-.922.101-.31c-1.182-.386-2.428-.583-3.655-.656l-.02.325-.019.326c1.185.07 2.375.26 3.492.625l.101-.31Zm-3.573-.64.02-.326c-.195-.012-.392-.01-.579-.01l.001.325.001.326c.19 0 .367 0 .537.01l.02-.326Zm-.558-.01-.001-.326c-.357 0-.674 0-.963-.063l-.07.318-.07.318c.371.082.763.08 1.105.078v-.326Zm-1.034-.07.07-.319c-.201-.045-.335-.142-.543-.327l-.217.244-.216.244c.224.198.462.392.835.475l.07-.318Zm-.69-.402.3-.127c-.134-.32-.181-.735-.2-1.135l-.326.016-.326.015c.02.41.07.925.252 1.357l.3-.126Zm-.226-1.246.325-.016a35.993 35.993 0 0 1-.016-2.169L.695 17.4l-.325-.004c-.01.729-.019 1.472.016 2.208l.326-.015ZM.695 17.4l.326.004c.004-.323.009-.65.009-.974H.378c0 .32-.004.641-.008.966l.325.004Zm.01-.97h.325l.004-6.168H.382l-.004 6.167h.326Zm.003-6.168h.326l-.005-4.668H.377l.005 4.668h.326ZM.703 5.595h.326c0-.212-.009-.44-.018-.667l-.325.012-.326.013c.009.23.017.445.017.642h.326ZM.686 4.94l.325-.012c-.025-.636-.047-1.258.074-1.731l-.315-.08-.316-.081C.304 3.62.336 4.348.36 4.953l.326-.013ZM.77 3.116l.315.08c.042-.163.116-.233.346-.38l-.175-.274-.175-.275c-.257.164-.52.35-.627.768l.316.081Zm.486-.574.02.325c2.622-.17 5.48.376 7.77 1.65l.158-.285.158-.284C6.95 2.606 3.965 2.04 1.235 2.217l.02.325Zm7.948 1.69-.158.285c.757.422 1.444.94 2.158 1.48l.196-.26.197-.26c-.708-.536-1.43-1.082-2.235-1.53l-.158.285ZM11.4 5.736l.195.261c.4-.298.798-.593 1.204-.87l-.184-.269-.184-.269c-.417.286-.826.588-1.225.886l.194.261Zm1.215-.878.184.27c2.155-1.473 4.727-2.205 7.342-2.27l-.008-.326-.008-.326c-2.724.068-5.422.831-7.694 2.383l.184.27Zm7.518-2.326.008.326c.114-.003.233-.009.35-.015l-.016-.326-.018-.325c-.117.006-.228.012-.332.014l.008.326Zm.034 2.081-.003-.326c-.292.003-.68-.019-1.028.028l.043.323.043.323c.294-.04.592-.02.948-.022l-.003-.326Zm-.988.025-.03-.325a13.841 13.841 0 0 0-3.603.814c-1.195.456-2.327 1.12-3.12 2.05l.248.212.248.21c.698-.818 1.72-1.43 2.856-1.863a13.192 13.192 0 0 1 3.43-.774l-.03-.324Zm-6.505 2.75-.249-.21c-.068.081-.133.164-.194.245l.26.196.26.196c.057-.075.114-.147.172-.216l-.25-.21Zm-.183.231h-.326l-.003 13.733h.651l.004-13.733h-.326Zm-.004 13.733.192.264c.25-.182.484-.358.728-.527l-.186-.268-.186-.267c-.252.174-.501.362-.74.535l.192.263Zm.734-.53.167.279c1.974-1.18 4.46-1.391 6.812-1.56l-.023-.325-.024-.325c-2.324.167-4.97.379-7.1 1.65l.168.28Zm6.956-1.606h.326c0-4.859.065-9.74-.01-14.608l-.326.005-.326.005c.075 4.86.01 9.727.01 14.598h.326Zm-17.51-14.6-.326-.009c-.05 2.038-.04 4.083-.03 6.118l.327-.002.325-.001c-.01-2.037-.02-4.072.03-6.099l-.326-.008Zm-.03 6.107-.325.002c.004.836.01 1.67.01 2.502h.651c0-.834-.005-1.67-.01-2.505l-.325.002Zm.01 2.504h-.325c0 .61-.008 1.225-.016 1.844l.326.004.326.004c.007-.618.015-1.237.015-1.852h-.326Zm-.015 1.848h-.326v.005h.652v-.005h-.326Zm0 .005-.326-.004c-.017 1.366-.035 2.752.034 4.116l.325-.016.325-.017c-.067-1.34-.05-2.705-.032-4.075l-.326-.004Zm.033 4.096-.028.324c2.715.234 5.335.5 7.501 2.09l.193-.263.193-.263c-2.336-1.713-5.142-1.981-7.831-2.213l-.028.325Zm7.666 2.151h.326a807.61 807.61 0 0 1 .076-13.668l-.326-.005-.325-.004a808.28 808.28 0 0 0-.077 13.678l.326-.001Zm.076-13.673.237-.224c-1.836-1.938-4.69-3.07-7.32-3.144l-.009.325-.009.326c2.478.07 5.162 1.143 6.865 2.941l.236-.224ZM3.315 4.611l.007-.326a12.341 12.341 0 0 0-.666.004l.011.326.01.326c.211-.007.421-.009.631-.004l.007-.326ZM30.48 4.017c2.61-.046 7.006-.122 8.454.432 1.105.424 2.046 1.257 2.527 2.347.474 1.074.508 2.494.078 3.588-.46 1.168-1.303 1.661-2.394 2.132l.255.09c.234.08.47.161.69.27a4.314 4.314 0 0 1 2.142 2.45c.444 1.307.274 2.77-.326 3.993a4.81 4.81 0 0 1-1.85 1.802c-.683.382-1.358.535-2.13.637-1.17.155-7.967.257-8.82-.033-.116-.04-.23-.083-.283-.197-.125-.272-.143-.689-.156-1.01l-.004-.09c-.082-1.827-.055-3.678-.03-5.522.012-.82.024-1.639.026-2.453.002-.784-.008-1.575-.018-2.366-.02-1.543-.04-3.091.03-4.617.015-.331.044-.7.163-1.011.091-.237.208-.32.432-.425.327-.002.742-.01 1.215-.017Zm6.524 9.917c-.951-.227-3.954-.07-5.098-.07l.001 5.213c1.342.003 4.263.173 5.413-.12.425-.11.762-.28 1.085-.577.517-.61.786-1.225.71-2.042-.07-.727-.381-1.346-.947-1.814a2.904 2.904 0 0 0-1.164-.59Zm.805-6.692c-.917-.71-3.32-.634-4.954-.58-.362.01-.687.021-.949.022l.002 4.641c.305.001.676.01 1.081.02 1.339.035 3.046.078 3.938-.15a2.733 2.733 0 0 0 1.09-.545c.436-.527.675-1.13.619-1.823-.05-.61-.34-1.207-.827-1.585ZM57.406 14.397a6.878 6.878 0 1 0-13.636 1.816 6.878 6.878 0 0 0 13.636-1.816ZM50.117 11.4c.765-.038 1.44-.025 2.117.388.761.464 1.234 1.256 1.44 2.108.293 1.206.224 2.868-.455 3.941-.486.769-1.163 1.11-2.021 1.298-.823.083-1.64.005-2.346-.468-.743-.499-1.176-1.313-1.345-2.176-.239-1.225-.164-2.817.577-3.866.508-.72 1.185-1.075 2.033-1.225ZM72.166 14.355a6.87 6.87 0 1 0-13.61 1.88 6.87 6.87 0 0 0 13.61-1.88Zm-7.342-2.953c.743-.061 1.463-.038 2.131.336.794.445 1.279 1.225 1.505 2.087.324 1.238.26 2.835-.418 3.952-.48.79-1.165 1.159-2.04 1.356-.82.106-1.628.015-2.333-.449-.753-.494-1.19-1.3-1.373-2.164-.258-1.222-.174-2.796.538-3.858.484-.72 1.157-1.089 1.99-1.26ZM74.909 3.46c.051-.004.102-.008.154-.01.51-.017 1.648-.116 1.995.351.148.2.17.616.188.862.077 1.037.015 2.123.015 3.165l.001 6.137c.726-.863 1.561-1.653 2.327-2.483.756-.82 1.483-1.763 2.32-2.493.2-.174.35-.266.608-.336.535-.146 2.473-.254 2.881.037.105.074.193.217.185.348-.036.585-3.895 4.39-4.568 5.055a544.107 544.107 0 0 0 3.745 5.373c.313.455 1.204 1.43 1.09 1.994a.455.455 0 0 1-.23.29c-.58.318-2.802.109-3.496-.118-.496-.498-.9-1.219-1.299-1.798l-2.415-3.52-1.154 1.002c-.004.924.272 3.64-.322 4.26-.266.277-.613.298-.974.302-.553.005-1.622.097-2.026-.298-.103-1.063-.069-2.14-.07-3.207l-.001-4.558V7.569c0-1.11-.04-2.236.012-3.344.007-.15.011-.278.1-.406.212-.307.597-.312.934-.358ZM98.384 8.533c.729-.016 2.179-.177 2.835.094.246.102.357.353.467.582.467.973.772 2.094 1.148 3.11.653 1.767 1.357 3.515 2.02 5.278.385-.995 3.045-8.41 3.481-8.78.213-.18.619-.22.885-.227.561-.016 1.609-.14 2.034.252.107.252.093.39.031.661-.218.946-.681 1.928-1.02 2.84l-2.183 5.865-1.475 3.998c-.296.807-.558 1.67-.942 2.438a4.967 4.967 0 0 1-.802 1.178c-.784.84-1.81 1.201-2.939 1.24-.484.017-1.314.107-1.688-.239-.238-.482-.258-1.607-.105-2.127.15-.506 1.259-.41 1.706-.661.719-.405.915-1.202 1.101-1.942-.578-1.747-4.928-12.43-4.886-13.034.018-.263.142-.375.332-.526ZM91.238 8.48c.365-.055.766-.04 1.137-.036 1.474.015 3.124.326 4.186 1.435.488.51.844 1.28.79 1.999-.008.122-.042.298-.147.372-.53.374-1.975.3-2.605.216-.558-.075-.515-.448-.86-.857-.379-.45-.933-.671-1.51-.713-.643-.047-1.455.162-1.934.613-.21.2-.434.713-.4 1 .15 1.253 3.679 1.414 4.695 1.67.86.216 1.748.539 2.436 1.119.653.55.948 1.3 1.014 2.137.082 1.033-.22 2.022-.905 2.804-1.19 1.359-2.926 1.758-4.653 1.885-1.327.045-2.755-.137-3.95-.75-.865-.445-1.647-1.14-1.936-2.1-.118-.392-.197-.85.011-1.222.604-.473 2.252-.288 2.985-.26.246.375.398.816.735 1.128.57.524 1.408.683 2.16.645.614-.03 1.268-.205 1.68-.693.228-.269.36-.614.325-.97-.136-1.42-3.635-1.415-4.718-1.665-.782-.18-1.58-.497-2.213-.999-.667-.53-1.093-1.242-1.174-2.096a4.002 4.002 0 0 1 .895-2.885c1.003-1.216 2.445-1.628 3.956-1.776Z"/>
  </g>
  <defs>
    <clipPath id="a">
      <path fill="#fff" d="M.667.584h110.667v28H.667z"/>
    </clipPath>
  </defs>
</svg>
